<?xml version="1.0" standalone="no"?><!DOCTYPE svg PUBLIC "-//W3C//DTD SVG 1.1//EN" "http://www.w3.org/Graphics/SVG/1.1/DTD/svg11.dtd"><svg class="icon" width="200px" height="166.78px" viewBox="0 0 1228 1024" version="1.1" xmlns="http://www.w3.org/2000/svg"><path fill="#333333" d="M68.288748 136.533559h1092.26171c37.698228 0 68.265089-30.566862 68.265089-68.26171 0-37.701608-30.566862-68.268469-68.265089-68.268469H68.288748c-37.701608 0-68.268469 30.566862-68.268469 68.268469 0 37.694848 30.566862 68.26171 68.268469 68.26171z m1092.26171 307.203041H68.288748c-37.701608 0-68.268469 30.560102-68.268469 68.26171 0 37.698228 30.566862 68.268469 68.268469 68.268469h1092.26171c37.698228 0 68.265089-30.570241 68.265089-68.268469 0-37.701608-30.566862-68.26171-68.265089-68.26171z m0 443.729841H68.288748c-37.701608 0-68.268469 30.563482-68.268469 68.26171s30.566862 68.268469 68.268469 68.268469h1092.26171c37.698228 0 68.265089-30.570241 68.265089-68.268469s-30.566862-68.26171-68.265089-68.26171z" /></svg>