<?xml version="1.0" standalone="no"?><!DOCTYPE svg PUBLIC "-//W3C//DTD SVG 1.1//EN" "http://www.w3.org/Graphics/SVG/1.1/DTD/svg11.dtd"><svg class="icon" width="200px" height="200.00px" viewBox="0 0 1024 1024" version="1.1" xmlns="http://www.w3.org/2000/svg"><path fill="#333333" d="M510.997504 906.238976c-216.344576-0.541696-394.566656-180.373504-393.229312-396.713984C119.103488 293.444608 295.174144 118.030336 511.500288 117.76c13.034496-0.016384 24.203264 9.923584 25.081856 22.928384 0.971776 14.386176-10.413056 26.351616-24.582144 26.351616-189.645824 0-344.036352 153.823232-344.955904 343.258112-0.925696 190.574592 154.31168 346.626048 344.889344 346.661888 190.097408 0.03584 344.800256-154.505216 345.02656-344.542208 0.01536-12.491776 10.221568-24.016896 22.67648-24.981504C894.125056 486.31296 906.24 497.738752 906.24 512 906.24 729.714688 728.836096 906.783744 510.997504 906.238976zM701.587456 653.517824 534.928384 486.858752 534.928384 251.045888c0-12.60544-10.244096-24.173568-22.816768-25.07776-14.432256-1.038336-26.463232 10.36288-26.463232 24.573952l0 246.4c0 0.027648 0.008192 0.053248 0.008192 0.080896-0.001024 0.059392 0.017408 0.115712 0.018432 0.17408 0.03072 3.01056 0.641024 5.869568 1.659904 8.528896 0.103424 0.272384 0.144384 0.549888 0.257024 0.8192 1.160192 2.737152 2.839552 5.185536 4.854784 7.31136 0.1792 0.190464 0.232448 0.44544 0.418816 0.631808l174.231552 174.230528c10.048512 10.048512 26.615808 9.604096 36.087808-1.334272C711.437312 677.855232 710.501376 662.43072 701.587456 653.517824zM660.867072 196.813824 660.867072 196.813824c-13.607936 0-24.640512-11.031552-24.640512-24.639488l0 0c0-13.607936 11.031552-24.639488 24.639488-24.639488l0 0c13.607936 0 24.640512 11.031552 24.640512 24.639488l0 0C685.50656 185.781248 674.475008 196.813824 660.867072 196.813824zM766.95552 270.733312 766.95552 270.733312c-13.607936 0-24.640512-11.031552-24.640512-24.639488l0 0c0-13.607936 11.031552-24.639488 24.639488-24.639488l0 0c13.607936 0 24.640512 11.031552 24.640512 24.639488l0 0C791.596032 259.70176 780.563456 270.733312 766.95552 270.733312zM847.720448 388.457472 847.720448 388.457472c-13.607936 0-24.640512-11.031552-24.640512-24.639488l0 0c0-13.607936 11.031552-24.639488 24.640512-24.639488l0 0c13.607936 0 24.640512 11.031552 24.640512 24.639488l0 0C872.359936 377.42592 861.328384 388.457472 847.720448 388.457472z" /></svg>