<?xml version="1.0" standalone="no"?><!DOCTYPE svg PUBLIC "-//W3C//DTD SVG 1.1//EN" "http://www.w3.org/Graphics/SVG/1.1/DTD/svg11.dtd"><svg t="1493277409504" class="icon" style="" viewBox="0 0 1024 1024" version="1.1" xmlns="http://www.w3.org/2000/svg" p-id="4994" xmlns:xlink="http://www.w3.org/1999/xlink" width="200" height="200"><defs><style type="text/css"></style></defs><path d="M167.387311 854.022701l244.88536-68.609611 25.335015-25.374924L265.216407 587.639724l-25.598005 25.562189L167.387311 854.022701 167.387311 854.022701 167.387311 854.022701 167.387311 854.022701 167.387311 854.022701zM293.944705 558.911426l172.419931 172.418908 336.959382-337.01157L630.936833 221.915205 293.944705 558.911426 293.944705 558.911426 293.944705 558.911426 293.944705 558.911426 293.944705 558.911426zM881.103476 213.493395l-69.365834-69.368904c-39.676651-39.677675-63.348794-39.677675-103.010095 0l-49.046043 49.090045 172.394349 172.371836 49.051159-49.063439C920.78422 276.838096 920.78422 253.17414 881.103476 213.493395L881.103476 213.493395 881.103476 213.493395 881.103476 213.493395 881.103476 213.493395 881.103476 213.493395zM409.366482 149.025105c-39.672558-39.681768-63.368236-39.681768-103.045911 0l-163.988912 163.964352-28.724205-28.728298L286.002826 111.861694c39.676651-39.680744 103.985306-39.680744 143.66605 0l94.963839 94.967932-28.732391 28.724205L409.366482 149.025105 409.366482 149.025105 409.366482 149.025105 409.366482 149.025105 409.366482 149.025105 409.366482 149.025105zM214.155475 327.372026l57.485249-57.481156 28.747741 28.732391-57.481156 57.477063-3.412726-3.413749 32.121582 32.166607 86.185918-86.22992 28.755927 28.748764-86.193081 86.185918 8.773827 8.777921-28.740578 28.728298-138.081868-138.074705 28.747741-28.728298L214.155475 327.372026 214.155475 327.372026 214.155475 327.372026 214.155475 327.372026 214.155475 327.372026zM616.446817 729.638809l86.184895 86.190011 43.11496 43.110867 135.236054-135.2688c39.677675-39.684838 39.677675-63.37233 0-103.054097l-90.693582-90.694605 28.724205-28.736485 99.128695 99.132788c39.676651 39.677675 39.676651 103.982236 0 143.671167L774.47497 887.648542l-28.728298 28.732391-28.728298-28.732391L574.774719 745.404887l28.732391-28.729322L616.446817 729.638809 616.446817 729.638809 616.446817 729.638809 616.446817 729.638809 616.446817 729.638809 616.446817 729.638809zM731.384569 672.186306l-86.185918 86.181825-28.747741-28.729322 86.180801-86.228897L731.384569 672.186306 731.384569 672.186306 731.384569 672.186306 731.384569 672.186306 731.384569 672.186306zM745.746672 715.257264l28.732391 28.747741-71.822792 71.823815-28.728298-28.748764L745.746672 715.257264 745.746672 715.257264 745.746672 715.257264 745.746672 715.257264 745.746672 715.257264zM745.746672 715.257264" p-id="4995"></path></svg>