<?xml version="1.0" standalone="no"?><!DOCTYPE svg PUBLIC "-//W3C//DTD SVG 1.1//EN" "http://www.w3.org/Graphics/SVG/1.1/DTD/svg11.dtd"><svg t="1493271254598" class="icon" style="" viewBox="0 0 1024 1024" version="1.1" xmlns="http://www.w3.org/2000/svg" p-id="2925" xmlns:xlink="http://www.w3.org/1999/xlink" width="200" height="200"><defs><style type="text/css"></style></defs><path d="M761.248866 208.843017 461.531611 512.526663l299.717255 303.68851c9.265857 9.259775 16.212208 19.845329 20.84392 31.756662 4.629279 11.906468 6.946352 23.984435 6.946352 36.224172 0 12.23852-2.317072 24.148637-6.946352 35.729133-4.631712 11.573198-11.578064 21.998199-20.84392 31.256758-18.524415 19.189737-40.689249 28.782782-66.492069 28.782782-25.804036 0-47.96887-9.593044-66.493285-28.782782L266.024226 585.971165c-9.259775-9.26464-16.539396-20.344016-21.831565-33.249075-5.293385-12.898977-8.272131-25.969454-8.932587-39.201701-0.660457-13.23103 0.993726-25.965806 4.960116-38.209191 3.972471-12.239737 10.585554-22.326603 19.851411-30.265465l368.190695-371.16944c18.523199-18.525632 40.689249-27.790272 66.493285-27.790272 25.80282 0 47.967654 9.26464 66.492069 27.790272 9.265857 9.259775 16.212208 19.845329 20.84392 31.756662 4.629279 11.906468 6.946352 23.984435 6.946352 36.222955 0 12.239737-2.317072 24.15107-6.946352 35.729133C777.461074 189.159458 770.514723 199.583242 761.248866 208.843017L761.248866 208.843017zM761.248866 208.843017" p-id="2926" fill="#ffffff"></path></svg>