<?xml version="1.0" standalone="no"?><!DOCTYPE svg PUBLIC "-//W3C//DTD SVG 1.1//EN" "http://www.w3.org/Graphics/SVG/1.1/DTD/svg11.dtd"><svg t="1493276727479" class="icon" style="" viewBox="0 0 1024 1024" version="1.1" xmlns="http://www.w3.org/2000/svg" p-id="3777" xmlns:xlink="http://www.w3.org/1999/xlink" width="200" height="200"><defs><style type="text/css"></style></defs><path d="M511.99693 959.599248c-216.297254 0-391.649981-175.34147-391.649981-391.638725 0-155.909909 91.785449-289.026696 223.800136-351.729783l0 129.076774c-67.682495 50.998511-111.89444 131.371026-111.89444 222.653009 0 154.500816 125.249609 279.755542 279.744285 279.755542 154.500816 0 279.750425-125.254725 279.750425-279.755542 0-91.281983-44.217061-171.654498-111.89444-222.653009L679.852916 216.231763c132.013663 62.703087 223.800136 195.819874 223.800136 351.729783C903.653051 784.257777 728.294185 959.599248 511.99693 959.599248z" p-id="3778"></path><path d="M567.94722 456.05585c0 30.900777-25.048489 55.955406-55.95029 55.955406-30.895661 0-55.94415-25.054629-55.94415-55.955406l0-335.705831c0-30.884404 25.048489-55.95029 55.94415-55.95029 30.900777 0 55.95029 25.065885 55.95029 55.95029L567.94722 456.05585z" p-id="3779"></path></svg>